# Blender v2.79 (sub 0) OBJ File: 'crate.blend'
# www.blender.org
mtllib crate.mtl
o Cube
v 1.000000 -1.000000 -1.000000
v 1.000000 -1.000000 1.000000
v -1.000000 -1.000000 1.000000
v -1.000000 -1.000000 -1.000000
v 1.000000 1.969369 -0.999999
v 0.999999 1.000000 1.000001
v -1.000000 1.000000 1.000000
v -1.000000 1.969369 -1.000000
v 1.000000 -0.191134 2.577631
v -1.000001 -0.191134 2.577631
v 0.999999 1.808866 2.577631
v -1.000001 1.808866 2.577631
v 2.632131 -1.000000 -2.177017
v 0.632131 -1.000000 -2.177017
v 2.632131 1.969369 -2.177016
v 0.632131 1.969369 -2.177017
vt 1.000000 0.000000
vt 0.000000 1.000000
vt 0.000000 0.000000
vt 1.000000 0.000000
vt 0.000000 1.000000
vt 0.000000 0.000000
vt 1.000000 1.000000
vt 0.000000 1.000000
vt 0.000000 0.000000
vt 1.000000 1.000000
vt 0.000000 1.000000
vt 1.000000 0.000000
vt 0.000000 0.000000
vt 1.000000 1.000000
vt 0.000000 1.000000
vt 1.000000 0.000000
vt 0.000000 1.000000
vt 0.000000 0.000000
vt 1.000000 0.000000
vt 0.000000 1.000000
vt 0.000000 0.000000
vt 0.000000 1.000000
vt 0.000000 0.000000
vt 1.000000 0.000000
vt 0.000000 1.000000
vt 0.000000 0.000000
vt 1.000000 0.000000
vt 0.000000 0.000000
vt 0.000000 0.000000
vt 1.000000 1.000000
vt 0.000000 1.000000
vt 1.000000 1.000000
vt 0.000000 1.000000
vt 1.000000 1.000000
vt 1.000000 1.000000
vt 1.000000 0.000000
vt 1.000000 1.000000
vt 1.000000 0.000000
vt 1.000000 1.000000
vt 1.000000 1.000000
vt 1.000000 1.000000
vt 1.000000 1.000000
vt 1.000000 0.000000
vn 0.0000 -1.0000 0.0000
vn -0.0000 0.8999 0.4362
vn 1.0000 0.0000 0.0000
vn -1.0000 -0.0000 -0.0000
vn 0.5849 -0.0000 0.8111
vn -0.0000 -0.0000 1.0000
vn -0.0000 -0.8899 0.4562
vn 0.0000 0.8899 -0.4562
vn 0.0000 0.0000 -1.0000
vn -0.0000 1.0000 0.0000
vn -0.5849 0.0000 -0.8111
usemtl Material
s off
f 2/1/1 4/2/1 1/3/1
f 8/4/2 6/5/2 5/6/2
f 1/3/3 6/7/3 2/8/3
f 7/9/4 10/10/4 12/11/4
f 7/12/4 4/2/4 3/13/4
f 5/6/5 13/14/5 15/15/5
f 11/16/6 10/17/6 9/18/6
f 6/19/3 9/20/3 2/21/3
f 2/1/7 10/17/7 3/13/7
f 7/12/8 11/22/8 6/23/8
f 13/24/9 16/25/9 15/26/9
f 5/27/10 16/25/10 8/28/10
f 4/29/11 16/30/11 14/31/11
f 1/3/1 14/32/1 13/33/1
f 2/1/1 3/34/1 4/2/1
f 8/4/2 7/35/2 6/5/2
f 1/3/3 5/27/3 6/7/3
f 7/9/4 3/36/4 10/10/4
f 7/12/4 8/37/4 4/2/4
f 5/6/5 1/38/5 13/14/5
f 11/16/6 12/39/6 10/17/6
f 6/19/3 11/40/3 9/20/3
f 2/1/7 9/41/7 10/17/7
f 7/12/8 12/39/8 11/22/8
f 13/24/9 14/32/9 16/25/9
f 5/27/10 15/42/10 16/25/10
f 4/29/11 8/4/11 16/30/11
f 1/3/1 4/43/1 14/32/1
